<mxfile host="65bd71144e">
    <diagram id="tNJmBUoDxnqjJc0c00nP" name="Page-1">
        <mxGraphModel dx="1247" dy="657" grid="1" gridSize="10" guides="1" tooltips="1" connect="1" arrows="1" fold="1" page="1" pageScale="1" pageWidth="850" pageHeight="1100" math="0" shadow="0">
            <root>
                <mxCell id="0"/>
                <mxCell id="1" parent="0"/>
                <mxCell id="kb47WbbnUSf2NKxiao4H-1" value="" style="whiteSpace=wrap;html=1;aspect=fixed;" parent="1" vertex="1">
                    <mxGeometry x="230" y="660" width="50" height="50" as="geometry"/>
                </mxCell>
                <mxCell id="kb47WbbnUSf2NKxiao4H-2" value="" style="whiteSpace=wrap;html=1;aspect=fixed;" parent="1" vertex="1">
                    <mxGeometry x="282" y="660" width="50" height="50" as="geometry"/>
                </mxCell>
                <mxCell id="kb47WbbnUSf2NKxiao4H-3" value="" style="whiteSpace=wrap;html=1;aspect=fixed;" parent="1" vertex="1">
                    <mxGeometry x="334" y="660" width="50" height="50" as="geometry"/>
                </mxCell>
                <mxCell id="kb47WbbnUSf2NKxiao4H-4" value="2" style="whiteSpace=wrap;html=1;aspect=fixed;fillColor=#B3B3B3;" parent="1" vertex="1">
                    <mxGeometry x="386" y="660" width="50" height="50" as="geometry"/>
                </mxCell>
                <mxCell id="kb47WbbnUSf2NKxiao4H-5" value="" style="whiteSpace=wrap;html=1;aspect=fixed;" parent="1" vertex="1">
                    <mxGeometry x="230" y="712" width="50" height="50" as="geometry"/>
                </mxCell>
                <mxCell id="kb47WbbnUSf2NKxiao4H-6" value="" style="whiteSpace=wrap;html=1;aspect=fixed;" parent="1" vertex="1">
                    <mxGeometry x="282" y="712" width="50" height="50" as="geometry"/>
                </mxCell>
                <mxCell id="kb47WbbnUSf2NKxiao4H-7" value="" style="whiteSpace=wrap;html=1;aspect=fixed;" parent="1" vertex="1">
                    <mxGeometry x="334" y="712" width="50" height="50" as="geometry"/>
                </mxCell>
                <mxCell id="kb47WbbnUSf2NKxiao4H-8" value="2" style="whiteSpace=wrap;html=1;aspect=fixed;fillColor=#B3B3B3;" parent="1" vertex="1">
                    <mxGeometry x="386" y="712" width="50" height="50" as="geometry"/>
                </mxCell>
                <mxCell id="kb47WbbnUSf2NKxiao4H-9" value="" style="whiteSpace=wrap;html=1;aspect=fixed;" parent="1" vertex="1">
                    <mxGeometry x="230" y="764" width="50" height="50" as="geometry"/>
                </mxCell>
                <mxCell id="kb47WbbnUSf2NKxiao4H-10" value="" style="whiteSpace=wrap;html=1;aspect=fixed;" parent="1" vertex="1">
                    <mxGeometry x="282" y="764" width="50" height="50" as="geometry"/>
                </mxCell>
                <mxCell id="kb47WbbnUSf2NKxiao4H-11" value="" style="whiteSpace=wrap;html=1;aspect=fixed;" parent="1" vertex="1">
                    <mxGeometry x="334" y="764" width="50" height="50" as="geometry"/>
                </mxCell>
                <mxCell id="kb47WbbnUSf2NKxiao4H-12" value="2" style="whiteSpace=wrap;html=1;aspect=fixed;fillColor=#B3B3B3;" parent="1" vertex="1">
                    <mxGeometry x="386" y="764" width="50" height="50" as="geometry"/>
                </mxCell>
                <mxCell id="kb47WbbnUSf2NKxiao4H-23" value="2" style="whiteSpace=wrap;html=1;aspect=fixed;fillColor=#999999;" parent="1" vertex="1">
                    <mxGeometry x="230" y="816" width="50" height="50" as="geometry"/>
                </mxCell>
                <mxCell id="kb47WbbnUSf2NKxiao4H-24" value="4" style="whiteSpace=wrap;html=1;aspect=fixed;fillColor=#4D4D4D;" parent="1" vertex="1">
                    <mxGeometry x="282" y="816" width="50" height="50" as="geometry"/>
                </mxCell>
                <mxCell id="kb47WbbnUSf2NKxiao4H-25" value="" style="whiteSpace=wrap;html=1;aspect=fixed;" parent="1" vertex="1">
                    <mxGeometry x="334" y="816" width="50" height="50" as="geometry"/>
                </mxCell>
                <mxCell id="kb47WbbnUSf2NKxiao4H-26" value="" style="whiteSpace=wrap;html=1;aspect=fixed;fillColor=#FFFFFF;" parent="1" vertex="1">
                    <mxGeometry x="386" y="816" width="50" height="50" as="geometry"/>
                </mxCell>
                <mxCell id="kb47WbbnUSf2NKxiao4H-30" value="2" style="whiteSpace=wrap;html=1;aspect=fixed;fillColor=#999999;" parent="1" vertex="1">
                    <mxGeometry x="230" y="868" width="50" height="50" as="geometry"/>
                </mxCell>
                <mxCell id="kb47WbbnUSf2NKxiao4H-31" value="4" style="whiteSpace=wrap;html=1;aspect=fixed;fillColor=#4D4D4D;" parent="1" vertex="1">
                    <mxGeometry x="282" y="868" width="50" height="50" as="geometry"/>
                </mxCell>
                <mxCell id="kb47WbbnUSf2NKxiao4H-32" value="" style="whiteSpace=wrap;html=1;aspect=fixed;" parent="1" vertex="1">
                    <mxGeometry x="334" y="868" width="50" height="50" as="geometry"/>
                </mxCell>
                <mxCell id="kb47WbbnUSf2NKxiao4H-33" value="" style="whiteSpace=wrap;html=1;aspect=fixed;fillColor=#FFFFFF;" parent="1" vertex="1">
                    <mxGeometry x="386" y="868" width="50" height="50" as="geometry"/>
                </mxCell>
                <mxCell id="1towVgMfn-rUhUeNCm9Z-1" value="2" style="whiteSpace=wrap;html=1;aspect=fixed;fillColor=#999999;" parent="1" vertex="1">
                    <mxGeometry x="230" y="920" width="50" height="50" as="geometry"/>
                </mxCell>
                <mxCell id="1towVgMfn-rUhUeNCm9Z-2" value="4" style="whiteSpace=wrap;html=1;aspect=fixed;fillColor=#4D4D4D;" parent="1" vertex="1">
                    <mxGeometry x="282" y="920" width="50" height="50" as="geometry"/>
                </mxCell>
                <mxCell id="1towVgMfn-rUhUeNCm9Z-3" value="" style="whiteSpace=wrap;html=1;aspect=fixed;" parent="1" vertex="1">
                    <mxGeometry x="334" y="920" width="50" height="50" as="geometry"/>
                </mxCell>
                <mxCell id="1towVgMfn-rUhUeNCm9Z-4" value="" style="whiteSpace=wrap;html=1;aspect=fixed;fillColor=#FFFFFF;" parent="1" vertex="1">
                    <mxGeometry x="386" y="920" width="50" height="50" as="geometry"/>
                </mxCell>
                <mxCell id="1towVgMfn-rUhUeNCm9Z-6" value="" style="whiteSpace=wrap;html=1;aspect=fixed;" parent="1" vertex="1">
                    <mxGeometry x="230" y="972" width="50" height="50" as="geometry"/>
                </mxCell>
                <mxCell id="1towVgMfn-rUhUeNCm9Z-7" value="4" style="whiteSpace=wrap;html=1;aspect=fixed;fillColor=#4D4D4D;" parent="1" vertex="1">
                    <mxGeometry x="282" y="972" width="50" height="50" as="geometry"/>
                </mxCell>
                <mxCell id="1towVgMfn-rUhUeNCm9Z-8" value="" style="whiteSpace=wrap;html=1;aspect=fixed;" parent="1" vertex="1">
                    <mxGeometry x="334" y="972" width="50" height="50" as="geometry"/>
                </mxCell>
                <mxCell id="1towVgMfn-rUhUeNCm9Z-9" value="" style="whiteSpace=wrap;html=1;aspect=fixed;fillColor=#FFFFFF;" parent="1" vertex="1">
                    <mxGeometry x="386" y="972" width="50" height="50" as="geometry"/>
                </mxCell>
                <mxCell id="1towVgMfn-rUhUeNCm9Z-10" value="" style="whiteSpace=wrap;html=1;aspect=fixed;" parent="1" vertex="1">
                    <mxGeometry x="230" y="1024" width="50" height="50" as="geometry"/>
                </mxCell>
                <mxCell id="1towVgMfn-rUhUeNCm9Z-11" value="4" style="whiteSpace=wrap;html=1;aspect=fixed;fillColor=#4D4D4D;" parent="1" vertex="1">
                    <mxGeometry x="282" y="1024" width="50" height="50" as="geometry"/>
                </mxCell>
                <mxCell id="1towVgMfn-rUhUeNCm9Z-12" value="" style="whiteSpace=wrap;html=1;aspect=fixed;" parent="1" vertex="1">
                    <mxGeometry x="334" y="1024" width="50" height="50" as="geometry"/>
                </mxCell>
                <mxCell id="1towVgMfn-rUhUeNCm9Z-13" value="" style="whiteSpace=wrap;html=1;aspect=fixed;fillColor=#FFFFFF;" parent="1" vertex="1">
                    <mxGeometry x="386" y="1024" width="50" height="50" as="geometry"/>
                </mxCell>
                <mxCell id="MSOwNAgfnWlgVfPWSBbm-1" value="" style="shape=mxgraph.signs.sports.cycling;html=1;pointerEvents=1;fillColor=#000000;strokeColor=none;verticalLabelPosition=bottom;verticalAlign=top;align=center;sketch=0;" parent="1" vertex="1">
                    <mxGeometry x="340" y="772.5" width="38" height="33" as="geometry"/>
                </mxCell>
                <mxCell id="MSOwNAgfnWlgVfPWSBbm-2" value="" style="shape=mxgraph.signs.food.fast_food;html=1;pointerEvents=1;fillColor=#000000;strokeColor=none;verticalLabelPosition=bottom;verticalAlign=top;align=center;sketch=0;" parent="1" vertex="1">
                    <mxGeometry x="239" y="1035.5" width="34" height="27" as="geometry"/>
                </mxCell>
                <mxCell id="2" value="2" style="whiteSpace=wrap;html=1;aspect=fixed;fillColor=#B3B3B3;" vertex="1" parent="1">
                    <mxGeometry x="438" y="660" width="50" height="50" as="geometry"/>
                </mxCell>
                <mxCell id="3" value="2" style="whiteSpace=wrap;html=1;aspect=fixed;fillColor=#B3B3B3;" vertex="1" parent="1">
                    <mxGeometry x="438" y="712" width="50" height="50" as="geometry"/>
                </mxCell>
                <mxCell id="4" value="2" style="whiteSpace=wrap;html=1;aspect=fixed;fillColor=#B3B3B3;" vertex="1" parent="1">
                    <mxGeometry x="438" y="764" width="50" height="50" as="geometry"/>
                </mxCell>
                <mxCell id="5" value="" style="whiteSpace=wrap;html=1;aspect=fixed;fillColor=#FFFFFF;" vertex="1" parent="1">
                    <mxGeometry x="438" y="816" width="50" height="50" as="geometry"/>
                </mxCell>
                <mxCell id="6" value="" style="whiteSpace=wrap;html=1;aspect=fixed;fillColor=#FFFFFF;" vertex="1" parent="1">
                    <mxGeometry x="438" y="868" width="50" height="50" as="geometry"/>
                </mxCell>
                <mxCell id="7" value="" style="whiteSpace=wrap;html=1;aspect=fixed;fillColor=#FFFFFF;" vertex="1" parent="1">
                    <mxGeometry x="438" y="920" width="50" height="50" as="geometry"/>
                </mxCell>
                <mxCell id="8" value="" style="whiteSpace=wrap;html=1;aspect=fixed;fillColor=#FFFFFF;" vertex="1" parent="1">
                    <mxGeometry x="438" y="972" width="50" height="50" as="geometry"/>
                </mxCell>
                <mxCell id="9" value="" style="whiteSpace=wrap;html=1;aspect=fixed;fillColor=#FFFFFF;" vertex="1" parent="1">
                    <mxGeometry x="438" y="1024" width="50" height="50" as="geometry"/>
                </mxCell>
                <mxCell id="10" value="" style="whiteSpace=wrap;html=1;aspect=fixed;fillColor=#FFFFFF;" vertex="1" parent="1">
                    <mxGeometry x="491" y="660" width="50" height="50" as="geometry"/>
                </mxCell>
                <mxCell id="11" value="" style="whiteSpace=wrap;html=1;aspect=fixed;fillColor=#FFFFFF;" vertex="1" parent="1">
                    <mxGeometry x="491" y="712" width="50" height="50" as="geometry"/>
                </mxCell>
                <mxCell id="12" value="" style="whiteSpace=wrap;html=1;aspect=fixed;fillColor=#FFFFFF;" vertex="1" parent="1">
                    <mxGeometry x="491" y="764" width="50" height="50" as="geometry"/>
                </mxCell>
                <mxCell id="13" value="" style="whiteSpace=wrap;html=1;aspect=fixed;fillColor=#FFFFFF;" vertex="1" parent="1">
                    <mxGeometry x="491" y="816" width="50" height="50" as="geometry"/>
                </mxCell>
                <mxCell id="14" value="" style="whiteSpace=wrap;html=1;aspect=fixed;fillColor=#FFFFFF;" vertex="1" parent="1">
                    <mxGeometry x="491" y="868" width="50" height="50" as="geometry"/>
                </mxCell>
                <mxCell id="15" value="" style="whiteSpace=wrap;html=1;aspect=fixed;fillColor=#FFFFFF;" vertex="1" parent="1">
                    <mxGeometry x="491" y="920" width="50" height="50" as="geometry"/>
                </mxCell>
                <mxCell id="16" value="" style="whiteSpace=wrap;html=1;aspect=fixed;fillColor=#FFFFFF;" vertex="1" parent="1">
                    <mxGeometry x="491" y="972" width="50" height="50" as="geometry"/>
                </mxCell>
                <mxCell id="17" value="" style="whiteSpace=wrap;html=1;aspect=fixed;fillColor=#FFFFFF;" vertex="1" parent="1">
                    <mxGeometry x="491" y="1024" width="50" height="50" as="geometry"/>
                </mxCell>
            </root>
        </mxGraphModel>
    </diagram>
</mxfile>